<?xml version="1.0" encoding="UTF-8" standalone="no"?>
<svg
   xmlns:osb="http://www.openswatchbook.org/uri/2009/osb"
   xmlns:dc="http://purl.org/dc/elements/1.1/"
   xmlns:cc="http://creativecommons.org/ns#"
   xmlns:rdf="http://www.w3.org/1999/02/22-rdf-syntax-ns#"
   xmlns:svg="http://www.w3.org/2000/svg"
   xmlns="http://www.w3.org/2000/svg"
   version="1.1"
   id="svg4575"
   viewBox="0 0 259.12315 259.27883"
   height="73.174248mm"
   width="73.13031mm">
  <defs
     id="defs4577">
    <linearGradient
       gradientTransform="matrix(6.2319814,0,0,6.2476494,1403.5768,22478.105)"
       osb:paint="solid"
       id="linearGradient3895-0">
      <stop
         id="stop3897-2"
         offset="0"
         style="stop-color:#e74c3c;stop-opacity:1;" />
    </linearGradient>
  </defs>
  <metadata
     id="metadata4580">
    <rdf:RDF>
      <cc:Work
         rdf:about="">
        <dc:format>image/svg+xml</dc:format>
        <dc:type
           rdf:resource="http://purl.org/dc/dcmitype/StillImage" />
        <dc:title></dc:title>
      </cc:Work>
    </rdf:RDF>
  </metadata>
  <g
     transform="translate(1572.4187,454.42007)"
     id="layer1">
    <path
       id="path4566"
       style="fill:#e74c3c;fill-opacity:1;fill-rule:evenodd;stroke:#e74c3c;stroke-width:1.58049405;stroke-opacity:1"
       d="m -1544.4515,-302.80422 c -1.7901,-7.80062 -2.686,-15.94275 -2.686,-24.42637 0,-28.82775 10.1641,-53.43737 30.494,-73.83212 20.382,-20.34263 44.9779,-30.51313 73.7859,-30.51313 1.3256,0 2.6417,0.025 3.95,0.0788 27.1096,0.88375 50.3625,11.02738 69.757,30.43413 20.3818,20.39475 30.5728,45.00437 30.5728,73.83212 0,7.535 -0.6841,14.78075 -2.054,21.73862 -2.4236,-0.31612 -4.898,-0.47425 -7.426,-0.47425 -11.7977,0.15813 -21.9618,4.11063 -30.4938,11.85738 -4.6864,-1.581 -9.6649,-2.3445 -14.931,-2.29238 -5.846,0.10375 -11.297,1.07975 -16.353,2.92325 -8.2097,-7.36737 -17.8998,-11.214 -29.072,-11.53962 -0.6542,-0.0125 -1.3114,-0.0125 -1.975,0 -11.7978,0.1565 -21.9888,4.08362 -30.5729,11.77837 -4.6879,-1.52887 -9.6649,-2.24025 -14.931,-2.136 -5.7939,0.0538 -11.218,0.9755 -16.274,2.76675 -8.7421,-7.79737 -19.1449,-11.59337 -31.205,-11.3815 -3.6861,0 -7.2159,0.39525 -10.586,1.18575" />
    <path
       id="path4568"
       style="fill:none;stroke:#e74c3c;stroke-width:3.16098809;stroke-linecap:round;stroke-linejoin:miter;stroke-miterlimit:3;stroke-dasharray:none;stroke-opacity:1"
       d="m -1512.772,-250.86934 c 3.1062,-2.21338 6.478,-4.05688 10.112,-5.5335 m -10.744,6.00775 c 0.2101,-0.158 0.4219,-0.31613 0.632,-0.47425 -1.106,-0.7905 -2.2389,-1.502 -3.397,-2.13438 m -20.856,-28.61587 c 1.2119,-0.21025 2.4742,-0.31625 3.792,-0.31625 4.3702,0 8.3202,0.92337 11.85,2.76675 m 8.611,-7.82588 c -6.1099,-4.42675 -13.0888,-6.56112 -20.935,-6.403 -2.7381,0 -5.3451,0.28925 -7.821,0.8695 m 113.0489,48.6945 c 0.7362,-0.84262 1.4741,-1.68525 2.212,-2.5295 2.054,-2.05537 4.1853,-3.8735 6.399,-5.4545 m 6.557,24.97963 c 0.8421,-1.3185 1.8422,-2.58325 3.002,-3.79438 1.2102,-1.16037 2.4742,-2.21337 3.792,-3.16187 3.0556,-2.1075 6.399,-3.4245 10.033,-3.9525 1.1581,-0.21025 2.37,-0.29088 3.6323,-0.23713 0.3177,-0.0537 0.6589,-0.025 1.0287,0.0788 1.0016,0 2.0002,0.0787 3.002,0.23713 m -38.71,13.75462 c 1.3682,-4.743 3.792,-9.09075 7.268,-13.04312 0.474,-0.68625 1.0017,-1.317 1.58,-1.89725 2.1061,-2.10738 4.3181,-3.89875 6.636,-5.37538 3.1078,-1.94937 6.4511,-3.426 10.033,-4.42675 2.7381,-0.63237 5.6073,-0.9755 8.611,-1.02762 2.4221,0 4.7652,0.23712 7.031,0.71137 3.2121,0.5265 6.2677,1.502 9.1638,2.92488 m -116.4457,10.2765 c 1.3682,-0.47438 2.7917,-0.81738 4.266,-1.02775 1.2102,-0.158 2.4221,-0.23713 3.634,-0.23713 0.3681,-0.0525 0.711,-0.0525 1.027,0 3.7397,0 7.1889,0.84275 10.3489,2.52963 2.212,1.10675 4.2928,2.60862 6.241,4.50587 1.4741,1.31688 2.6591,2.74138 3.555,4.26863 0.158,0.26237 0.3413,0.55337 0.553,0.8695 m 3.239,-27.193 c 2.5801,1.68537 5.0291,3.6885 7.347,6.00775 0.6841,0.73837 1.3698,1.44975 2.054,2.13437 m -53.6409,0.55338 c 3.16,-1.94938 6.5301,-3.39913 10.112,-4.34775 2.7902,-0.63238 5.688,-0.94863 8.69,-0.94863 2.37,0 4.6877,0.185 6.9519,0.55338 3.7383,0.63237 7.268,1.87187 10.586,3.71525 2.686,1.52725 5.293,3.5035 7.821,5.92875 0.4218,0.42062 0.8421,0.86962 1.264,1.34387 3.8441,4.16275 6.5301,8.80138 8.058,13.91275 m 12.8753,0.23713 c 1.4237,-7.799 4.8207,-14.757 10.1927,-20.86913 -3.1853,-1.73275 -6.6598,-2.68287 -10.428,-2.84575 -0.4693,-0.0125 -0.9449,-0.0125 -1.422,0 -4.0559,0.0537 -7.742,0.9755 -11.06,2.76675 5.6358,6.16588 9.243,13.17438 10.823,21.02713 m -20.224,-65.29488 c -3.4239,-2.109 -6.9789,-3.79437 -10.665,-5.05912 m 27.729,24.50525 c -1.896,-4.1105 -4.4509,-7.90488 -7.663,-11.38313 m -55.9319,19.99963 c 1.6321,1.10662 3.1852,2.34612 4.661,3.71525 5.056,-1.845 10.4801,-2.79363 16.274,-2.84575 5.2661,-0.10375 10.2431,0.6055 14.9309,2.13437 m -46.4519,-8.30025 c 3.6861,1.26475 7.2142,3.03075 10.586,5.29638 1.106,-2.05538 2.5011,-3.97788 4.187,-5.77063 1.1581,-1.15887 2.3969,-2.24025 3.713,-3.241 3.002,-2.00162 6.3452,-3.26637 10.033,-3.7945 1.2102,-0.21025 2.4221,-0.31612 3.634,-0.31612 0.3681,-0.0538 0.711,-0.0538 1.027,0 3.7397,0 7.1889,0.84425 10.3489,2.52962 2.212,1.10663 4.2928,2.63388 6.241,4.58488 1.3698,1.211 2.5011,2.5295 3.397,3.95237 m -37.9199,-30.434 c -3.634,1.52725 -7.0058,3.39913 -10.112,5.6125 -2.212,1.581 -4.345,3.39913 -6.399,5.45438 -0.7379,0.7905 -1.4741,1.581 -2.212,2.3715 -2.5801,3.05612 -4.7148,6.29712 -6.399,9.72312 -0.316,0.57863 -0.6051,1.18575 -0.869,1.81813 0.316,0 0.6051,0.0263 0.869,0.0788 3.4239,0.31625 6.715,1.02775 9.875,2.13437 1.264,-2.42362 2.8171,-4.71762 4.661,-6.87725 0.5782,-0.6325 1.1581,-1.238 1.738,-1.81812 2.054,-2.15975 4.2122,-3.9525 6.478,-5.37538 3.16,-2.00162 6.5301,-3.45137 10.112,-4.34775 2.7902,-0.63237 5.688,-0.94862 8.69,-0.94862 2.37,0 4.6877,0.15812 6.9519,0.47425 3.7383,0.6325 7.268,1.89725 10.586,3.79437 2.686,1.47675 5.293,3.453 7.821,5.92875 0.4218,0.42213 0.8421,0.84275 1.264,1.26488 1.896,2.109 3.5028,4.32075 4.819,6.64012 m 34.918,-21.26437 c -5.5679,-4.02038 -11.9133,-6.169 -19.039,-6.4425 -0.6257,-0.03 -1.2593,-0.0437 -1.896,-0.04 -7.584,0.0525 -14.2469,2.13425 -19.987,6.24487 2.5801,1.68688 5.0291,3.6885 7.347,6.00775 0.6841,0.73838 1.3698,1.42288 2.054,2.05525 3.318,-1.739 7.0041,-2.6355 11.06,-2.68762 0.4771,-0.0125 0.9527,-0.0125 1.422,0 3.7682,0.1565 7.2427,1.07987 10.428,2.76675 m 49.9278,-14.07088 c 3.7384,1.1605 7.2934,2.8205 10.665,4.98013 m -41.9505,31.857 c 5.0577,-1.89725 10.5087,-2.8995 16.3547,-3.00388 5.2661,-0.0525 10.2431,0.71138 14.9308,2.29238 m 6.715,-5.05913 c -2.37,1.47513 -4.6087,3.162 -6.715,5.05913 3.3703,1.05462 6.5824,2.50275 9.638,4.34775 m -66.7548,-15.01948 c -1.0808,-0.1 -2.1583,-0.1645 -3.239,-0.19762 -0.6589,-0.0263 -1.3178,-0.04 -1.975,-0.04 -0.9497,0 -1.896,0.0538 -2.844,0.158 -3.8442,0.2625 -7.5319,0.94862 -11.06,2.05537 -3.476,1.0545 -6.794,2.55488 -9.954,4.50575 -2.37,1.47513 -4.6088,3.162 -6.715,5.05925 3.6861,1.26475 7.2411,2.95163 10.665,5.05913 5.7401,-4.05688 12.403,-6.11213 19.987,-6.16588 l 0.316,0 c 0.5513,0 1.0776,0.025 1.58,0.0788 l 0.079,0 c 7.11,0.26238 13.43,2.37138 18.96,6.32388 3.1078,-2.21338 6.4511,-4.0315 10.0313,-5.45438 -1.4725,-1.37075 -3.0272,-2.60862 -4.6593,-3.71537 m -10.428,-5.37538 c 3.6323,1.26488 7.11,3.05763 10.428,5.37538 1.0522,-2.05525 2.449,-3.97938 4.187,-5.77063 1.2102,-1.15887 2.4742,-2.21337 3.792,-3.16187 3.0556,-2.10913 6.399,-3.42613 10.033,-3.9525 1.1581,-0.21188 2.37,-0.31625 3.6323,-0.31625 0.3177,0 0.6589,0.0275 1.0287,0.0787 3.7382,0 7.2142,0.81575 10.4263,2.4505 2.1614,1.15887 4.2408,2.66075 6.2425,4.50575 1.2625,1.26487 2.37,2.634 3.318,4.11062 3.16,-1.951 6.5034,-3.47812 10.033,-4.58487 m -48.0335,-25.84913 c -3.5802,1.475 -6.9235,3.32 -10.0313,5.53338 -2.2137,1.581 -4.345,3.37387 -6.399,5.37537 -0.7379,0.8965 -1.4758,1.73913 -2.212,2.52963 -3.0558,3.53037 -5.4527,7.32625 -7.189,11.38312 3.7382,0.31613 7.3217,1.08138 10.744,2.29238 1.2623,-2.3715 2.8171,-4.637 4.661,-6.79825 0.474,-0.6845 1.0017,-1.3185 1.58,-1.89713 2.1061,-2.10912 4.3181,-3.8735 6.636,-5.29637 3.1078,-2.00313 6.4511,-3.47813 10.033,-4.42675 2.7381,-0.63238 5.6073,-0.97388 8.611,-1.02763 2.4221,0 4.7652,0.21025 7.031,0.63238 3.7382,0.63237 7.2411,1.87037 10.5053,3.71537 2.7919,1.52725 5.3989,3.53188 7.8225,6.00775 0.4725,0.42213 0.948,0.84263 1.422,1.26475 1.896,2.05525 3.5029,4.24338 4.819,6.56113 1.8439,-0.58025 3.7668,-1.0545 5.767,-1.42288 m -2.4505,-11.8575 c 2.1077,2.26725 3.9247,4.664 5.4525,7.19363 m 9.717,-21.34338 c -1.5278,-0.15812 -3.081,-0.23725 -4.661,-0.23725 -7.5318,0.10625 -14.1678,2.16125 -19.908,6.16588 2.5802,1.73912 5.0292,3.76912 7.347,6.08687 0.7364,0.63238 1.422,1.34388 2.0525,2.13425 3.16,-1.79275 6.7418,-2.7145 10.7455,-2.76662 m -195.9521,-19.19313 c 3.3701,-0.7905 6.1406,-1.12262 9.8284,-1.12262 12.0601,-0.21025 22.4629,3.58412 31.205,11.38312 5.056,-1.79125 10.4801,-2.713 16.274,-2.76675 5.2661,-0.10625 10.2431,0.6055 14.9309,2.13438 8.5841,-7.69475 18.7751,-11.62038 30.573,-11.77838 0.6636,-0.0125 1.3208,-0.0125 1.975,0 11.1706,0.32563 20.8622,4.17375 29.0703,11.54125 5.0577,-1.8435 10.5087,-2.819 16.3547,-2.92487 5.2661,-0.0525 10.2431,0.71137 14.9308,2.29237 4.8263,-4.38211 10.1749,-7.55013 16.046,-9.50402 4.5079,-1.50022 9.3239,-2.28467 14.448,-2.35335 2.528,0 4.2141,0.31596 6.6378,0.63209" />
    <path
       id="path4570"
       style="fill:none;stroke:#e74c3c;stroke-width:11.06345749;stroke-linecap:round;stroke-linejoin:miter;stroke-miterlimit:3;stroke-dasharray:none;stroke-opacity:1"
       d="m -1355.1673,-237.03572 c -24.2276,24.24138 -53.4576,36.36275 -87.6898,36.36275 -34.2338,0 -63.4638,-12.12137 -87.6899,-36.36275 -24.2261,-24.24125 -36.34,-53.48962 -36.34,-87.74487 0,-34.25537 12.1139,-63.50362 36.34,-87.745 24.2261,-24.24137 53.4561,-36.36275 87.6899,-36.36275 34.2322,0 63.4622,12.12138 87.6898,36.36275 24.2262,24.24138 36.34,53.48963 36.34,87.745 0,34.25525 -12.1138,63.50362 -36.34,87.74487 z" />
  </g>
</svg>
